<svg xmlns="http://www.w3.org/2000/svg" width="1400" height="800"><rect width="1400" height="800" fill="#fff"/><style>.t{font-family:'Microsoft YaHei','Noto Sans SC',sans-serif;fill:#14213d}.h{font-size:42px;font-weight:700}.s{font-size:20px;fill:#64748b}.b{font-size:23px;font-weight:700}.d{font-size:17px;fill:#64748b}.a{font-size:34px;fill:#64748b}</style><text x="76" y="78" class="t" font-size="18" font-weight="700" fill="#2563eb">ADVISOR CHAIN</text><text x="700" y="145" class="t h" text-anchor="middle">横切能力如何进入模型调用链</text><text x="700" y="184" class="t s" text-anchor="middle">请求按顺序向下增强，响应沿调用链反向返回</text><g transform="translate(65,300)"><rect width="210" height="125" rx="18" fill="#eff6ff" stroke="#60a5fa" stroke-width="2"/><text x="105" y="55" class="t b" text-anchor="middle">ChatClient</text><text x="105" y="88" class="t d" text-anchor="middle">原始请求</text></g><text x="295" y="375" class="t a">→</text><g transform="translate(345,300)"><rect width="210" height="125" rx="18" fill="#f5f3ff" stroke="#a78bfa" stroke-width="2"/><text x="105" y="48" class="t b" text-anchor="middle">Advisor 1</text><text x="105" y="82" class="t d" text-anchor="middle">日志 / 安全</text></g><text x="575" y="375" class="t a">→</text><g transform="translate(625,300)"><rect width="210" height="125" rx="18" fill="#fff7ed" stroke="#fb923c" stroke-width="2"/><text x="105" y="48" class="t b" text-anchor="middle">Advisor 2</text><text x="105" y="82" class="t d" text-anchor="middle">Memory / RAG</text></g><text x="855" y="375" class="t a">→</text><g transform="translate(905,300)"><rect width="210" height="125" rx="18" fill="#f0fdf4" stroke="#4ade80" stroke-width="2"/><text x="105" y="48" class="t b" text-anchor="middle">终点 Advisor</text><text x="105" y="82" class="t d" text-anchor="middle">调用 ChatModel</text></g><text x="1135" y="375" class="t a">→</text><g transform="translate(1180,300)"><rect width="155" height="125" rx="18" fill="#eef2ff" stroke="#818cf8" stroke-width="2"/><text x="78" y="55" class="t b" text-anchor="middle">模型</text><text x="78" y="88" class="t d" text-anchor="middle">响应</text></g><path d="M1115 475 C1000 570 440 570 275 475" fill="none" stroke="#64748b" stroke-width="3" marker-end="url(#m)"/><defs><marker id="m" markerWidth="10" markerHeight="10" refX="8" refY="3" orient="auto"><path d="M0,0 L0,6 L9,3 z" fill="#64748b"/></marker></defs><text x="700" y="610" class="t s" text-anchor="middle">顺序决定增强逻辑的嵌套关系；同序号时不要依赖偶然的注册顺序</text><text x="700" y="730" class="t s" text-anchor="middle">第 12 章 · Advisor</text></svg>
