<svg xmlns="http://www.w3.org/2000/svg" width="1600" height="790" viewBox="0 0 1600 790"><rect width="1600" height="790" fill="#f8fafc"/><style>.title{font:700 34px 'Microsoft YaHei','Noto Sans SC',sans-serif;fill:#0f172a}.sub{font:400 18px 'Microsoft YaHei','Noto Sans SC',sans-serif;fill:#64748b}.h{font:700 19px 'Microsoft YaHei','Noto Sans SC',sans-serif;fill:#0f172a}.b{font:400 15px 'Microsoft YaHei','Noto Sans SC',sans-serif;fill:#475569}.tag{font:600 14px 'Microsoft YaHei','Noto Sans SC',sans-serif;fill:#1d4ed8}.box{fill:#fff;stroke:#cbd5e1;stroke-width:2}.blue{fill:#eff6ff;stroke:#60a5fa;stroke-width:2.5}.green{fill:#ecfdf5;stroke:#34d399;stroke-width:2.5}.orange{fill:#fff7ed;stroke:#fb923c;stroke-width:2.5}.arr{stroke:#64748b;stroke-width:3;fill:none;marker-end:url(#a)}.both{stroke:#64748b;stroke-width:3;fill:none;marker-start:url(#a);marker-end:url(#a)}</style><defs><marker id="a" markerWidth="10" markerHeight="10" refX="9" refY="3" orient="auto"><path d="M0 0L0 6L9 3Z" fill="#64748b"/></marker></defs>
<text x="800" y="58" text-anchor="middle" class="title">MCP 企业工具平台</text><text x="800" y="94" text-anchor="middle" class="sub">通过标准协议连接多个 AI 应用与受治理的企业能力目录</text>
<rect x="55" y="155" width="280" height="145" rx="18" class="blue"/><text x="195" y="200" text-anchor="middle" class="h">AI 客服</text><text x="195" y="240" text-anchor="middle" class="b">MCP Client</text><text x="195" y="272" text-anchor="middle" class="tag">用户与租户上下文</text><rect x="55" y="355" width="280" height="145" rx="18" class="blue"/><text x="195" y="400" text-anchor="middle" class="h">研发助手</text><text x="195" y="440" text-anchor="middle" class="b">MCP Client</text><text x="195" y="472" text-anchor="middle" class="tag">项目权限</text><rect x="55" y="555" width="280" height="145" rx="18" class="blue"/><text x="195" y="600" text-anchor="middle" class="h">运营 Agent</text><text x="195" y="640" text-anchor="middle" class="b">MCP Client</text><text x="195" y="672" text-anchor="middle" class="tag">岗位权限</text>
<rect x="465" y="230" width="360" height="390" rx="22" class="orange"/><text x="645" y="280" text-anchor="middle" class="h">MCP Gateway / Registry</text><text x="645" y="325" text-anchor="middle" class="b">Server 注册与健康检查</text><text x="645" y="365" text-anchor="middle" class="b">Tools / Resources / Prompts 目录</text><text x="645" y="405" text-anchor="middle" class="b">身份映射与授权策略</text><text x="645" y="445" text-anchor="middle" class="b">Schema 与版本校验</text><text x="645" y="485" text-anchor="middle" class="b">限流、超时与熔断</text><text x="645" y="525" text-anchor="middle" class="b">结果脱敏与审计</text><text x="645" y="575" text-anchor="middle" class="tag">控制面 + 数据面策略</text>
<rect x="955" y="130" width="300" height="140" rx="18" class="green"/><text x="1105" y="175" text-anchor="middle" class="h">订单 MCP Server</text><text x="1105" y="215" text-anchor="middle" class="b">queryOrder · queryLogistics</text><rect x="955" y="325" width="300" height="140" rx="18" class="green"/><text x="1105" y="370" text-anchor="middle" class="h">知识 MCP Server</text><text x="1105" y="410" text-anchor="middle" class="b">searchDocs · readResource</text><rect x="955" y="520" width="300" height="140" rx="18" class="green"/><text x="1105" y="565" text-anchor="middle" class="h">CRM MCP Server</text><text x="1105" y="605" text-anchor="middle" class="b">customerSummary · createLead</text>
<rect x="1340" y="230" width="215" height="390" rx="22" class="box"/><text x="1448" y="280" text-anchor="middle" class="h">企业系统</text><text x="1448" y="340" text-anchor="middle" class="b">订单中心</text><text x="1448" y="390" text-anchor="middle" class="b">知识库</text><text x="1448" y="440" text-anchor="middle" class="b">CRM</text><text x="1448" y="490" text-anchor="middle" class="b">数据库</text><text x="1448" y="540" text-anchor="middle" class="b">第三方 API</text><text x="1448" y="580" text-anchor="middle" class="tag">既有 Service/API</text>
<path d="M335 227H455" class="both"/><path d="M335 427H455" class="both"/><path d="M335 627H455" class="both"/><path d="M825 335H900V200H945" class="both"/><path d="M825 425H945" class="both"/><path d="M825 515H900V590H945" class="both"/><path d="M1255 200H1300V335H1330" class="both"/><path d="M1255 395H1330" class="both"/><path d="M1255 590H1300V515H1330" class="both"/>
<rect x="385" y="725" width="830" height="42" rx="10" fill="#e2e8f0"/><text x="800" y="753" text-anchor="middle" class="b">协议标准化不等于安全：最终授权仍在 Server 与业务 Service 执行处完成</text></svg>
