<svg xmlns="http://www.w3.org/2000/svg" width="1600" height="790" viewBox="0 0 1600 790"><rect width="1600" height="790" fill="#f8fafc"/><style>.title{font:700 34px 'Microsoft YaHei','Noto Sans SC',sans-serif;fill:#0f172a}.sub{font:400 18px 'Microsoft YaHei','Noto Sans SC',sans-serif;fill:#64748b}.h{font:700 19px 'Microsoft YaHei','Noto Sans SC',sans-serif;fill:#0f172a}.b{font:400 15px 'Microsoft YaHei','Noto Sans SC',sans-serif;fill:#475569}.tag{font:600 14px 'Microsoft YaHei','Noto Sans SC',sans-serif;fill:#1d4ed8}.box{fill:#fff;stroke:#cbd5e1;stroke-width:2}.blue{fill:#eff6ff;stroke:#60a5fa;stroke-width:2.5}.green{fill:#ecfdf5;stroke:#34d399;stroke-width:2.5}.orange{fill:#fff7ed;stroke:#fb923c;stroke-width:2.5}.arr{stroke:#64748b;stroke-width:3;fill:none;marker-end:url(#a)}</style><defs><marker id="a" markerWidth="10" markerHeight="10" refX="9" refY="3" orient="auto"><path d="M0 0L0 6L9 3Z" fill="#64748b"/></marker></defs>
<text x="800" y="58" text-anchor="middle" class="title">多模型路由：策略决策与受控 Fallback</text><text x="800" y="94" text-anchor="middle" class="sub">按数据边界、能力、成本、延迟和健康状态选择模型，而不是随机切换</text>
<rect x="50" y="220" width="245" height="155" rx="18" class="blue"/><text x="173" y="265" text-anchor="middle" class="h">ModelRequest</text><text x="173" y="305" text-anchor="middle" class="b">任务 · 数据级别 · SLA</text><text x="173" y="341" text-anchor="middle" class="tag">业务上下文</text>
<rect x="345" y="170" width="340" height="255" rx="20" class="orange"/><text x="515" y="215" text-anchor="middle" class="h">Model Router</text><text x="515" y="258" text-anchor="middle" class="b">Data Policy</text><text x="515" y="295" text-anchor="middle" class="b">Capability Match</text><text x="515" y="332" text-anchor="middle" class="b">Cost / Latency Budget</text><text x="515" y="369" text-anchor="middle" class="b">Health / Quota</text><text x="515" y="401" text-anchor="middle" class="tag">输出 RouteDecision</text>
<rect x="760" y="105" width="300" height="140" rx="18" class="green"/><text x="910" y="150" text-anchor="middle" class="h">Qwen Cloud</text><text x="910" y="190" text-anchor="middle" class="b">中文 · Tool · 长上下文</text><text x="910" y="220" text-anchor="middle" class="tag">主路由示例</text>
<rect x="760" y="295" width="300" height="140" rx="18" class="green"/><text x="910" y="340" text-anchor="middle" class="h">OpenAI Cloud</text><text x="910" y="380" text-anchor="middle" class="b">特定能力与生态</text><text x="910" y="410" text-anchor="middle" class="tag">策略允许时</text>
<rect x="760" y="485" width="300" height="140" rx="18" class="green"/><text x="910" y="530" text-anchor="middle" class="h">Ollama / Local</text><text x="910" y="570" text-anchor="middle" class="b">敏感数据 · 离线</text><text x="910" y="600" text-anchor="middle" class="tag">本地边界</text>
<rect x="1140" y="170" width="410" height="255" rx="20" class="box"/><text x="1345" y="215" text-anchor="middle" class="h">统一 ChatModel Adapter</text><text x="1345" y="260" text-anchor="middle" class="b">Prompt / Options 兼容检查</text><text x="1345" y="300" text-anchor="middle" class="b">Tool / Structured Output 能力检查</text><text x="1345" y="340" text-anchor="middle" class="b">Usage / Metadata 归一化</text><text x="1345" y="382" text-anchor="middle" class="tag">执行并记录 provider/model</text>
<path d="M295 297H335" class="arr"/><path d="M685 255H725V175H750" class="arr"/><path d="M685 297H750" class="arr"/><path d="M685 340H725V555H750" class="arr"/><path d="M1060 175H1100V255H1130" class="arr"/><path d="M1060 365H1130" class="arr"/><path d="M1060 555H1100V340H1130" class="arr"/>
<rect x="280" y="675" width="1040" height="70" rx="14" fill="#e2e8f0"/><text x="800" y="705" text-anchor="middle" class="h">Fallback 前置条件</text><text x="800" y="735" text-anchor="middle" class="b">数据允许离开原边界 · 能力兼容 · 请求可安全重放 · 尚未输出内容或产生副作用</text></svg>
