<svg xmlns="http://www.w3.org/2000/svg" width="1600" height="810" viewBox="0 0 1600 810"><rect width="1600" height="810" fill="#f8fafc"/><style>.title{font:700 34px 'Microsoft YaHei','Noto Sans SC',sans-serif;fill:#0f172a}.sub{font:400 18px 'Microsoft YaHei','Noto Sans SC',sans-serif;fill:#64748b}.h{font:700 19px 'Microsoft YaHei','Noto Sans SC',sans-serif;fill:#0f172a}.b{font:400 15px 'Microsoft YaHei','Noto Sans SC',sans-serif;fill:#475569}.tag{font:600 14px 'Microsoft YaHei','Noto Sans SC',sans-serif;fill:#1d4ed8}.box{fill:#fff;stroke:#cbd5e1;stroke-width:2}.blue{fill:#eff6ff;stroke:#60a5fa;stroke-width:2.5}.green{fill:#ecfdf5;stroke:#34d399;stroke-width:2.5}.orange{fill:#fff7ed;stroke:#fb923c;stroke-width:2.5}.arr{stroke:#64748b;stroke-width:3;fill:none;marker-end:url(#a)}</style><defs><marker id="a" markerWidth="10" markerHeight="10" refX="9" refY="3" orient="auto"><path d="M0 0L0 6L9 3Z" fill="#64748b"/></marker></defs>
<text x="800" y="58" text-anchor="middle" class="title">Spring AI Alibaba 生产部署与运维</text><text x="800" y="94" text-anchor="middle" class="sub">无状态应用横向扩展，状态外置；配置、密钥、观测与后台任务分别治理</text>
<rect x="55" y="210" width="230" height="150" rx="18" class="blue"/><text x="170" y="255" text-anchor="middle" class="h">Client / Gateway</text><text x="170" y="295" text-anchor="middle" class="b">TLS · Auth · Rate Limit</text><text x="170" y="330" text-anchor="middle" class="tag">SSE 支持</text><rect x="335" y="145" width="360" height="280" rx="22" class="green"/><text x="515" y="190" text-anchor="middle" class="h">Spring Boot Pods</text><text x="515" y="235" text-anchor="middle" class="b">Chat API</text><text x="515" y="272" text-anchor="middle" class="b">Advisor / Tool Adapter</text><text x="515" y="309" text-anchor="middle" class="b">Health / Metrics</text><text x="515" y="346" text-anchor="middle" class="b">Graceful Shutdown</text><text x="515" y="390" text-anchor="middle" class="tag">Container · Horizontal Scale</text><rect x="745" y="120" width="300" height="140" rx="18" class="box"/><text x="895" y="165" text-anchor="middle" class="h">State Stores</text><text x="895" y="205" text-anchor="middle" class="b">Memory · Task · Cache</text><text x="895" y="235" text-anchor="middle" class="tag">外置持久化</text><rect x="745" y="320" width="300" height="140" rx="18" class="box"/><text x="895" y="365" text-anchor="middle" class="h">RAG Infrastructure</text><text x="895" y="405" text-anchor="middle" class="b">Object Store · VectorStore</text><text x="895" y="435" text-anchor="middle" class="tag">版本化索引</text><rect x="1095" y="120" width="300" height="140" rx="18" class="orange"/><text x="1245" y="165" text-anchor="middle" class="h">Secret / Config</text><text x="1245" y="205" text-anchor="middle" class="b">API Key · Policy · Model</text><text x="1245" y="235" text-anchor="middle" class="tag">轮换与环境隔离</text><rect x="1095" y="320" width="300" height="140" rx="18" class="orange"/><text x="1245" y="365" text-anchor="middle" class="h">Providers / MCP</text><text x="1245" y="405" text-anchor="middle" class="b">Qwen · Tools · External API</text><text x="1245" y="435" text-anchor="middle" class="tag">Timeout / Circuit</text><path d="M285 285H325" class="arr"/><path d="M695 225H735V190" class="arr"/><path d="M695 345H735V390" class="arr"/><path d="M1045 190H1085" class="arr"/><path d="M1045 390H1085" class="arr"/>
<rect x="220" y="555" width="340" height="145" rx="18" class="blue"/><text x="390" y="600" text-anchor="middle" class="h">Observability</text><text x="390" y="640" text-anchor="middle" class="b">Logs · Metrics · Traces</text><text x="390" y="675" text-anchor="middle" class="tag">SLO / Alert</text><rect x="630" y="555" width="340" height="145" rx="18" class="box"/><text x="800" y="600" text-anchor="middle" class="h">Background Workers</text><text x="800" y="640" text-anchor="middle" class="b">Ingestion · Embedding · Agent</text><text x="800" y="675" text-anchor="middle" class="tag">独立资源池</text><rect x="1040" y="555" width="340" height="145" rx="18" class="blue"/><text x="1210" y="600" text-anchor="middle" class="h">Delivery</text><text x="1210" y="640" text-anchor="middle" class="b">Canary · Rollback · Migration</text><text x="1210" y="675" text-anchor="middle" class="tag">可恢复发布</text><path d="M515 425V500H390V545" class="arr"/><path d="M515 500H800V545" class="arr"/><path d="M800 500H1210V545" class="arr"/><rect x="280" y="750" width="1040" height="42" rx="10" fill="#e2e8f0"/><text x="800" y="778" text-anchor="middle" class="b">扩缩容必须同时考虑 Provider 配额、流式长连接、后台队列和共享状态，不能只看 CPU</text></svg>
